<?xml version="1.0" encoding="UTF-8"?>
<svg xmlns="http://www.w3.org/2000/svg" xmlns:xlink="http://www.w3.org/1999/xlink" width="1672px" height="1672px" viewBox="0 0 627 627" version="1.1">
<g id="surface1">
<path style=" stroke:none;fill-rule:nonzero;fill:rgb(0%,0%,0%);fill-opacity:1;" d="M 211.183594 144.554688 C 211.03125 144.902344 210.984375 189.640625 211.03125 243.921875 L 211.183594 342.640625 L 415.617188 342.640625 L 415.617188 144.203125 L 313.5 144.054688 C 232.074219 143.953125 211.332031 144.054688 211.183594 144.554688 Z M 412.867188 243.421875 L 412.867188 339.890625 L 213.933594 339.890625 L 213.933594 146.953125 L 412.867188 146.953125 Z M 412.867188 243.421875 "/>
<path style=" stroke:none;fill-rule:nonzero;fill:rgb(0%,0%,0%);fill-opacity:1;" d="M 230.925781 187.890625 C 230.925781 188.140625 232.074219 188.589844 233.425781 188.941406 C 236.425781 189.640625 238.675781 191.6875 239.421875 194.339844 C 240.171875 197.039062 240.125 263.515625 239.375 267.015625 C 238.625 270.515625 236.074219 273.113281 233.027344 273.664062 C 231.726562 273.863281 230.976562 274.261719 231.078125 274.5625 C 231.328125 275.414062 251.519531 275.414062 251.769531 274.613281 C 251.871094 274.261719 251.070312 273.914062 249.71875 273.710938 C 246.269531 273.164062 244.320312 271.613281 243.273438 268.515625 C 242.472656 266.066406 242.421875 263.167969 242.523438 231.976562 L 242.671875 198.035156 L 248.171875 207.582031 C 251.167969 212.882812 258.21875 225.277344 263.816406 235.175781 C 269.363281 245.070312 274.113281 253.320312 274.3125 253.519531 C 274.511719 253.71875 276.710938 250.121094 279.109375 245.523438 C 281.558594 240.921875 287.257812 230.328125 291.808594 221.929688 C 296.304688 213.53125 301.203125 204.535156 302.601562 201.9375 L 305.152344 197.1875 L 305.300781 232.425781 C 305.402344 256.316406 305.253906 268.265625 304.902344 269.515625 C 304.253906 271.761719 302.503906 273.210938 299.90625 273.664062 C 298.703125 273.863281 297.90625 274.261719 297.90625 274.710938 C 297.90625 275.261719 300.105469 275.363281 310.152344 275.363281 C 320.097656 275.363281 322.398438 275.261719 322.398438 274.710938 C 322.398438 274.3125 321.597656 273.863281 320.546875 273.664062 C 315.449219 272.714844 315.398438 272.414062 315.398438 253.21875 C 315.398438 244.570312 315.550781 237.425781 315.800781 237.324219 C 316 237.222656 319.898438 237.222656 324.445312 237.324219 L 332.742188 237.472656 L 330.09375 241.472656 C 325.195312 248.921875 323.046875 257.066406 323.546875 266.414062 C 324.296875 280.511719 331.644531 292.457031 343.742188 299.203125 C 354.9375 305.503906 368.632812 306.902344 381.777344 303.101562 C 386.726562 301.703125 393.523438 298.554688 395.773438 296.65625 C 397.222656 295.457031 397.472656 294.707031 399.121094 285.808594 C 399.472656 283.859375 398.371094 284.609375 396.421875 287.609375 C 393.425781 292.257812 389.175781 295.957031 383.726562 298.65625 C 377.679688 301.652344 373.179688 302.554688 366.382812 302.253906 C 356.835938 301.804688 349.238281 297.953125 343.140625 290.558594 C 337.242188 283.410156 334.441406 275.511719 334.042969 265.117188 C 333.644531 254.917969 335.691406 246.871094 340.589844 239.523438 C 342.589844 236.472656 343.242188 235.925781 345.238281 235.226562 C 348.988281 233.925781 353.988281 230.726562 356.636719 227.828125 L 359.136719 225.179688 L 365.433594 225.027344 C 370.03125 224.878906 372.582031 225.027344 374.929688 225.628906 C 384.425781 228.027344 392.523438 235.375 395.074219 243.820312 C 395.625 245.523438 396.222656 246.921875 396.523438 246.921875 C 397.125 246.921875 396.472656 231.425781 395.824219 230.625 C 395.074219 229.726562 386.328125 225.578125 382.878906 224.476562 C 377.230469 222.730469 373.832031 222.230469 367.234375 222.230469 C 361.785156 222.179688 360.933594 222.078125 361.183594 221.429688 C 361.984375 219.28125 362.882812 214.332031 362.882812 211.832031 C 362.882812 200.6875 356.734375 192.886719 344.640625 188.890625 C 341.242188 187.738281 340.542969 187.738281 319.546875 187.539062 C 306.152344 187.441406 297.90625 187.539062 297.90625 187.839844 C 297.90625 188.140625 298.753906 188.488281 299.753906 188.691406 C 302.554688 189.191406 304.253906 190.238281 304.601562 191.6875 C 304.851562 192.6875 303.753906 195.039062 299.253906 203.335938 C 296.105469 209.035156 291.007812 218.378906 287.90625 224.179688 C 284.808594 229.925781 281.410156 236.226562 280.410156 238.074219 C 278.3125 242.023438 278.5625 242.121094 275.0625 235.675781 C 273.710938 233.175781 270.214844 227.027344 267.316406 221.929688 C 264.464844 216.832031 258.867188 206.984375 254.96875 200.035156 L 247.820312 187.441406 L 239.375 187.441406 C 234.675781 187.441406 230.925781 187.640625 230.925781 187.890625 Z M 335.941406 190.640625 C 337.792969 191.039062 340.390625 191.9375 341.691406 192.589844 C 344.539062 194.039062 348.839844 198.386719 350.339844 201.335938 C 353.585938 207.683594 353.6875 216.429688 350.636719 222.777344 C 349.539062 224.929688 348.839844 225.628906 345.738281 227.476562 C 343.789062 228.628906 340.890625 230.578125 339.292969 231.777344 C 335.644531 234.574219 333.492188 234.976562 323.648438 234.824219 L 315.648438 234.675781 L 315.5 212.980469 C 315.449219 197.386719 315.550781 191.089844 315.949219 190.640625 C 316.75 189.691406 331.394531 189.691406 335.941406 190.640625 Z M 335.941406 190.640625 "/>
<path style=" stroke:none;fill-rule:nonzero;fill:rgb(0%,0%,0%);fill-opacity:1;" d="M 147.304688 381.226562 C 146.703125 383.179688 133.457031 414.019531 132.707031 415.167969 C 132.257812 415.867188 131.359375 416.617188 130.660156 416.867188 C 130.007812 417.117188 129.457031 417.46875 129.457031 417.617188 C 129.457031 417.765625 131.40625 417.867188 133.855469 417.816406 C 137.355469 417.816406 138.007812 417.714844 137.054688 417.265625 C 135.15625 416.316406 135.15625 414.667969 137.054688 409.96875 L 138.753906 405.621094 L 154.5 405.621094 L 156.5 410.070312 C 158.847656 415.316406 158.898438 416.21875 157.101562 417.015625 C 155.800781 417.566406 155.898438 417.617188 158.847656 417.765625 C 160.546875 417.867188 163.246094 417.867188 164.847656 417.765625 C 167.398438 417.617188 167.597656 417.566406 166.445312 417.015625 C 164.449219 416.117188 163.796875 415.066406 159.699219 405.71875 C 152.050781 388.125 148.652344 380.679688 148.101562 380.527344 C 147.804688 380.429688 147.453125 380.730469 147.304688 381.226562 Z M 150.101562 395.574219 C 151.953125 399.773438 153.449219 403.421875 153.449219 403.671875 C 153.449219 403.921875 150.253906 404.222656 146.402344 404.320312 C 140.554688 404.421875 139.355469 404.371094 139.554688 403.769531 C 141.253906 399.472656 146.253906 387.875 146.453125 387.875 C 146.601562 387.875 148.253906 391.324219 150.101562 395.574219 Z M 150.101562 395.574219 "/>
<path style=" stroke:none;fill-rule:nonzero;fill:rgb(0%,0%,0%);fill-opacity:1;" d="M 253.667969 380.828125 C 253.519531 381.078125 250.269531 388.675781 246.421875 397.625 C 242.621094 406.621094 239.125 414.519531 238.675781 415.167969 C 238.222656 415.867188 237.273438 416.667969 236.523438 417.015625 C 235.226562 417.566406 235.273438 417.617188 237.574219 417.765625 C 238.875 417.867188 240.921875 417.816406 242.074219 417.714844 C 243.820312 417.566406 243.972656 417.46875 243.023438 417.117188 C 241.125 416.46875 241.125 414.667969 243.023438 409.917969 L 244.773438 405.621094 L 252.621094 405.46875 L 260.417969 405.320312 L 262.214844 409.21875 C 263.214844 411.367188 264.117188 413.816406 264.265625 414.71875 C 264.515625 416.066406 264.316406 416.367188 263.117188 417.066406 C 261.714844 417.765625 261.964844 417.816406 267.566406 417.867188 C 271.363281 417.867188 273.363281 417.667969 273.164062 417.367188 C 273.011719 417.066406 272.5625 416.867188 272.164062 416.867188 C 270.863281 416.867188 269.664062 414.46875 262.167969 397.472656 C 258.066406 388.078125 254.519531 380.378906 254.320312 380.378906 C 254.117188 380.378906 253.867188 380.578125 253.667969 380.828125 Z M 256.167969 395.574219 C 258.019531 399.824219 259.46875 403.472656 259.367188 403.621094 C 259.117188 404.019531 246.421875 404.421875 245.871094 404.121094 C 245.472656 403.871094 251.96875 387.925781 252.46875 387.875 C 252.667969 387.875 254.320312 391.375 256.167969 395.574219 Z M 256.167969 395.574219 "/>
<path style=" stroke:none;fill-rule:nonzero;fill:rgb(0%,0%,0%);fill-opacity:1;" d="M 307.253906 381.378906 C 301.703125 383.128906 296.804688 388.125 295.105469 393.675781 C 294.105469 397.074219 294.207031 402.371094 295.355469 405.671875 C 298.15625 413.617188 305.300781 418.367188 314.398438 418.367188 C 318.296875 418.367188 322.945312 417.265625 324.945312 415.816406 C 326.945312 414.367188 329.09375 410.667969 328.496094 409.570312 C 328.09375 408.871094 327.894531 409.019531 326.894531 410.570312 C 324.296875 414.816406 318.449219 417.667969 313.398438 417.21875 C 310.101562 416.917969 308.152344 416.015625 305.351562 413.519531 C 299.753906 408.46875 297.953125 397.824219 301.355469 390.074219 C 305.253906 381.378906 315.949219 378.578125 322.695312 384.527344 C 323.945312 385.628906 325.597656 387.777344 326.394531 389.324219 L 327.894531 392.125 L 327.746094 388.125 L 327.644531 384.128906 L 325.496094 382.976562 C 320.648438 380.277344 312.800781 379.578125 307.253906 381.378906 Z M 307.253906 381.378906 "/>
<path style=" stroke:none;fill-rule:nonzero;fill:rgb(0%,0%,0%);fill-opacity:1;" d="M 368.433594 381.226562 C 368.03125 382.027344 366.035156 386.726562 356.285156 409.871094 C 354.285156 414.617188 352.789062 416.867188 351.585938 416.867188 C 351.238281 416.867188 350.789062 417.066406 350.636719 417.367188 C 350.4375 417.667969 351.9375 417.867188 354.738281 417.816406 C 358.285156 417.816406 358.933594 417.714844 357.984375 417.265625 C 356.1875 416.367188 356.1875 414.867188 358.035156 410.070312 L 359.734375 405.621094 L 367.582031 405.46875 L 375.429688 405.320312 L 377.179688 409.21875 C 378.179688 411.367188 379.078125 413.867188 379.230469 414.71875 C 379.480469 416.167969 379.328125 416.417969 378.078125 416.96875 C 376.679688 417.566406 376.78125 417.617188 379.777344 417.765625 C 381.476562 417.867188 384.175781 417.867188 385.777344 417.765625 C 388.375 417.617188 388.527344 417.566406 387.375 417.015625 C 386.675781 416.71875 385.828125 416.167969 385.578125 415.816406 C 385.277344 415.417969 382.027344 408.371094 378.378906 400.121094 C 371.582031 384.777344 369.53125 380.378906 369.132812 380.378906 C 369.03125 380.378906 368.730469 380.777344 368.433594 381.226562 Z M 371.382812 395.875 C 373.230469 400.121094 374.679688 403.769531 374.53125 403.972656 C 374.378906 404.320312 360.636719 404.019531 360.636719 403.671875 C 360.636719 402.871094 367.234375 387.925781 367.53125 388.027344 C 367.78125 388.078125 369.480469 391.625 371.382812 395.875 Z M 371.382812 395.875 "/>
<path style=" stroke:none;fill-rule:nonzero;fill:rgb(0%,0%,0%);fill-opacity:1;" d="M 523.484375 381.328125 C 516.636719 383.878906 512.238281 389.875 511.488281 397.625 C 511.136719 401.421875 511.9375 405.171875 513.984375 409.019531 C 515.785156 412.46875 518.535156 415.019531 522.285156 416.816406 C 524.78125 417.964844 525.683594 418.117188 530.332031 418.117188 C 535.03125 418.066406 535.878906 417.964844 538.429688 416.71875 C 542.078125 414.917969 545.875 410.769531 547.375 406.96875 C 548.273438 404.722656 548.523438 403.121094 548.523438 399.371094 C 548.523438 393.375 547.324219 390.027344 543.777344 386.125 C 540.078125 382.128906 536.828125 380.679688 530.832031 380.527344 C 527.082031 380.378906 525.53125 380.578125 523.484375 381.328125 Z M 534.230469 382.128906 C 540.578125 384.777344 544.777344 394.472656 543.375 403.070312 C 541.976562 411.519531 537.628906 416.566406 531.128906 417.21875 C 520.234375 418.316406 512.738281 401.523438 518.585938 389.125 C 519.933594 386.277344 522.984375 383.226562 525.53125 382.078125 C 527.632812 381.179688 531.929688 381.226562 534.230469 382.128906 Z M 534.230469 382.128906 "/>
<path style=" stroke:none;fill-rule:nonzero;fill:rgb(0%,0%,0%);fill-opacity:1;" d="M 84.472656 381.378906 C 84.472656 381.628906 84.773438 381.878906 85.171875 381.878906 C 85.574219 381.878906 86.273438 382.378906 86.671875 382.976562 C 87.371094 383.925781 87.472656 386.328125 87.472656 399.121094 C 87.472656 407.371094 87.320312 414.617188 87.171875 415.265625 C 86.972656 415.867188 86.324219 416.515625 85.671875 416.667969 C 82.972656 417.367188 84.773438 417.867188 89.769531 417.867188 C 93.121094 417.867188 94.917969 417.667969 94.71875 417.367188 C 94.570312 417.066406 94.070312 416.867188 93.71875 416.867188 C 92.371094 416.867188 91.96875 414.917969 91.96875 408.167969 L 91.96875 401.371094 L 96.867188 401.371094 C 104.617188 401.371094 108.816406 399.574219 110.964844 395.375 C 113.964844 389.527344 110.613281 382.929688 103.96875 381.429688 C 101.019531 380.730469 84.472656 380.730469 84.472656 381.378906 Z M 100.71875 382.378906 C 102.117188 382.679688 103.367188 383.527344 104.917969 385.128906 L 107.066406 387.425781 L 106.867188 391.125 C 106.664062 395.222656 105.867188 396.773438 102.96875 398.722656 C 101.566406 399.722656 100.667969 399.871094 96.667969 399.871094 L 91.96875 399.871094 L 91.96875 391.226562 C 91.96875 386.425781 92.121094 382.378906 92.320312 382.226562 C 92.769531 381.726562 98.367188 381.828125 100.71875 382.378906 Z M 100.71875 382.378906 "/>
<path style=" stroke:none;fill-rule:nonzero;fill:rgb(0%,0%,0%);fill-opacity:1;" d="M 189.191406 381.378906 C 189.339844 381.628906 189.839844 381.878906 190.1875 381.878906 C 191.738281 381.878906 191.9375 383.878906 191.9375 399.824219 L 191.9375 415.867188 L 190.339844 416.867188 L 188.691406 417.867188 L 194.089844 417.867188 C 197.039062 417.867188 199.4375 417.765625 199.4375 417.617188 C 199.4375 417.46875 198.886719 417.117188 198.238281 416.917969 C 196.738281 416.316406 196.4375 414.769531 196.4375 407.320312 L 196.4375 401.371094 L 201.335938 401.371094 C 207.382812 401.371094 210.832031 400.421875 213.433594 398.074219 C 215.632812 396.074219 216.632812 393.625 216.53125 390.277344 C 216.429688 386.027344 213.832031 383.027344 209.132812 381.578125 C 206.285156 380.730469 188.691406 380.527344 189.191406 381.378906 Z M 207.632812 383.425781 C 210.132812 385.128906 211.582031 387.976562 211.582031 391.074219 C 211.582031 393.824219 210.984375 395.375 209.234375 397.273438 C 207.382812 399.371094 205.785156 399.871094 200.9375 399.871094 L 196.4375 399.871094 L 196.4375 391.226562 C 196.4375 386.425781 196.585938 382.429688 196.738281 382.226562 C 196.886719 382.078125 199.035156 382.027344 201.484375 382.078125 C 205.183594 382.226562 206.183594 382.429688 207.632812 383.425781 Z M 207.632812 383.425781 "/>
<path style=" stroke:none;fill-rule:nonzero;fill:rgb(0%,0%,0%);fill-opacity:1;" d="M 410.867188 381.277344 C 410.867188 381.476562 411.367188 381.878906 411.96875 382.128906 C 412.617188 382.429688 413.269531 383.328125 413.46875 384.277344 C 413.71875 385.175781 413.867188 392.574219 413.769531 400.671875 L 413.617188 415.46875 L 410.617188 417.867188 L 416.015625 417.867188 C 419.515625 417.867188 421.316406 417.667969 421.117188 417.367188 C 420.964844 417.066406 420.464844 416.867188 420.117188 416.867188 C 418.765625 416.867188 418.367188 414.917969 418.367188 408.167969 L 418.367188 401.371094 L 424.265625 401.371094 L 428.714844 408.71875 C 431.113281 412.71875 433.710938 416.46875 434.410156 416.96875 C 435.410156 417.714844 436.359375 417.867188 439.160156 417.765625 L 442.609375 417.617188 L 440.859375 416.816406 C 439.910156 416.367188 438.808594 415.667969 438.460938 415.21875 C 437.609375 414.21875 429.3125 400.722656 429.464844 400.621094 C 429.5625 400.621094 430.5625 400.171875 431.710938 399.671875 C 435.359375 398.074219 437.359375 394.875 437.359375 390.625 C 437.359375 386.078125 434.261719 382.527344 429.363281 381.429688 C 426.765625 380.828125 410.867188 380.679688 410.867188 381.277344 Z M 428.664062 383.425781 C 434.011719 386.726562 433.960938 395.671875 428.5625 398.722656 C 426.964844 399.621094 425.8125 399.871094 422.515625 399.871094 L 418.367188 399.871094 L 418.367188 382.378906 L 422.664062 382.378906 C 426.164062 382.378906 427.3125 382.578125 428.664062 383.425781 Z M 428.664062 383.425781 "/>
<path style=" stroke:none;fill-rule:nonzero;fill:rgb(0%,0%,0%);fill-opacity:1;" d="M 464.5 381.179688 C 464.703125 381.378906 465.351562 381.777344 465.953125 382.078125 L 467.101562 382.679688 L 467.25 399.273438 L 467.351562 415.867188 L 465.75 416.867188 L 464.101562 417.867188 L 477.847656 417.765625 L 491.59375 417.617188 L 492.144531 415.117188 C 493.292969 410.320312 493.144531 410.167969 490.195312 413.117188 C 486.996094 416.316406 484.546875 416.96875 477.296875 416.765625 L 472.597656 416.617188 L 472.597656 382.679688 L 473.75 382.078125 C 475.898438 381.027344 475.5 380.878906 469.851562 380.878906 C 466.75 380.878906 464.351562 381.027344 464.5 381.179688 Z M 464.5 381.179688 "/>
<path style=" stroke:none;fill-rule:nonzero;fill:rgb(0%,0%,0%);fill-opacity:1;" d="M 325.597656 447.058594 C 323.945312 447.808594 323.398438 448.707031 323.398438 450.65625 C 323.398438 452.855469 324.296875 453.804688 327.195312 454.65625 C 330.695312 455.65625 332.144531 456.953125 331.394531 458.402344 C 330.195312 460.601562 326.644531 460.703125 324.996094 458.652344 C 324.097656 457.503906 322.898438 457.453125 322.898438 458.554688 C 322.898438 458.902344 323.445312 459.703125 324.148438 460.351562 C 326.796875 462.851562 333.242188 461.753906 333.492188 458.753906 C 333.695312 455.355469 332.84375 454.355469 328.644531 453.105469 C 325.496094 452.207031 324.546875 451.054688 325.695312 449.457031 C 326.695312 448.007812 329.496094 447.957031 330.945312 449.40625 C 331.496094 449.957031 332.292969 450.304688 332.695312 450.15625 C 334.542969 449.457031 330.644531 446.308594 328.046875 446.359375 C 327.546875 446.40625 326.445312 446.707031 325.597656 447.058594 Z M 325.597656 447.058594 "/>
<path style=" stroke:none;fill-rule:nonzero;fill:rgb(0%,0%,0%);fill-opacity:1;" d="M 215.929688 454.054688 C 215.929688 461.003906 215.980469 461.351562 216.929688 461.351562 C 217.878906 461.351562 217.929688 461.003906 217.980469 455.703125 L 217.980469 450.105469 L 220.078125 455.753906 C 222.828125 463.152344 223.328125 463.152344 226.128906 455.605469 L 228.175781 450.105469 L 228.328125 455.703125 C 228.425781 460.953125 228.527344 461.351562 229.425781 461.351562 C 230.375 461.351562 230.425781 461.003906 230.425781 454.105469 L 230.425781 446.859375 L 229.027344 446.859375 C 227.675781 446.859375 227.527344 447.105469 225.429688 452.90625 C 224.226562 456.253906 223.128906 458.804688 223.078125 458.554688 C 222.980469 458.304688 221.929688 455.605469 220.730469 452.605469 C 218.78125 447.707031 218.429688 447.105469 217.230469 446.957031 L 215.929688 446.808594 Z M 215.929688 454.054688 "/>
<path style=" stroke:none;fill-rule:nonzero;fill:rgb(0%,0%,0%);fill-opacity:1;" d="M 241.921875 454.105469 L 241.921875 461.351562 L 246.972656 461.351562 C 250.769531 461.351562 251.96875 461.203125 251.820312 460.703125 C 251.667969 460.304688 250.269531 460.054688 247.769531 459.953125 L 243.921875 459.804688 L 243.921875 454.855469 L 247.421875 454.855469 C 250.21875 454.855469 250.921875 454.703125 250.921875 454.105469 C 250.921875 453.503906 250.21875 453.355469 247.421875 453.355469 L 243.921875 453.355469 L 243.921875 448.40625 L 247.820312 448.257812 C 253.269531 448.058594 252.46875 447.15625 246.671875 446.957031 L 241.921875 446.808594 Z M 241.921875 454.105469 "/>
<path style=" stroke:none;fill-rule:nonzero;fill:rgb(0%,0%,0%);fill-opacity:1;" d="M 262.917969 454.105469 C 262.917969 461.003906 262.964844 461.351562 263.914062 461.351562 C 264.867188 461.351562 264.914062 461.003906 264.914062 455.855469 C 264.914062 452.804688 265.066406 450.355469 265.316406 450.40625 C 265.515625 450.40625 267.265625 452.855469 269.164062 455.855469 C 271.914062 460.152344 272.914062 461.351562 273.8125 461.351562 C 274.914062 461.351562 274.914062 461.304688 274.914062 454.054688 C 274.914062 447.40625 274.863281 446.808594 274.0625 446.957031 C 273.261719 447.105469 273.164062 447.757812 273.164062 452.503906 C 273.210938 455.453125 273.0625 457.855469 272.863281 457.855469 C 272.714844 457.855469 270.914062 455.355469 268.914062 452.355469 C 266.015625 447.957031 265.066406 446.859375 264.117188 446.859375 L 262.917969 446.859375 Z M 262.917969 454.105469 "/>
<path style=" stroke:none;fill-rule:nonzero;fill:rgb(0%,0%,0%);fill-opacity:1;" d="M 286.457031 452.855469 C 286.660156 458.554688 286.707031 458.902344 287.957031 460.152344 C 290.507812 462.652344 295.90625 462.152344 297.457031 459.253906 C 297.804688 458.605469 298.054688 455.953125 298.003906 452.65625 C 298.003906 448.007812 297.855469 447.058594 297.207031 446.957031 C 296.503906 446.808594 296.40625 447.507812 296.40625 451.804688 C 296.40625 454.554688 296.15625 457.355469 295.855469 458.054688 C 294.757812 460.402344 290.605469 460.804688 289.15625 458.703125 C 288.609375 457.902344 288.40625 456.15625 288.40625 452.253906 C 288.40625 447.105469 288.359375 446.859375 287.359375 446.859375 C 286.359375 446.859375 286.308594 447.058594 286.457031 452.855469 Z M 286.457031 452.855469 "/>
<path style=" stroke:none;fill-rule:nonzero;fill:rgb(0%,0%,0%);fill-opacity:1;" d="M 309.902344 454.105469 C 309.902344 461.003906 309.949219 461.351562 310.902344 461.351562 C 311.851562 461.351562 311.902344 461.003906 311.902344 454.105469 C 311.902344 447.207031 311.851562 446.859375 310.902344 446.859375 C 309.949219 446.859375 309.902344 447.207031 309.902344 454.105469 Z M 309.902344 454.105469 "/>
<path style=" stroke:none;fill-rule:nonzero;fill:rgb(0%,0%,0%);fill-opacity:1;" d="M 344.390625 454.105469 L 344.390625 461.351562 L 349.386719 461.351562 C 353.488281 461.351562 354.386719 461.203125 354.386719 460.601562 C 354.386719 460.003906 353.585938 459.851562 350.386719 459.851562 L 346.390625 459.851562 L 346.390625 454.855469 L 349.886719 454.855469 C 352.6875 454.855469 353.386719 454.703125 353.386719 454.105469 C 353.386719 453.503906 352.6875 453.355469 349.886719 453.355469 L 346.390625 453.355469 L 346.390625 448.355469 L 350.386719 448.355469 C 353.585938 448.355469 354.386719 448.207031 354.386719 447.605469 C 354.386719 447.007812 353.488281 446.859375 349.386719 446.859375 L 344.390625 446.859375 Z M 344.390625 454.105469 "/>
<path style=" stroke:none;fill-rule:nonzero;fill:rgb(0%,0%,0%);fill-opacity:1;" d="M 365.882812 454.105469 C 365.882812 460.652344 365.984375 461.351562 366.78125 461.351562 C 367.484375 461.351562 367.632812 460.851562 367.632812 458.453125 L 367.683594 455.605469 L 369.632812 455.605469 C 371.53125 455.605469 371.730469 455.753906 373.332031 458.453125 C 374.628906 460.652344 375.28125 461.351562 376.179688 461.351562 C 377.328125 461.351562 377.328125 461.304688 375.53125 458.355469 L 373.78125 455.355469 L 375.082031 454.304688 C 376.128906 453.503906 376.378906 452.855469 376.378906 451.105469 C 376.378906 447.808594 374.878906 446.859375 369.832031 446.859375 L 365.882812 446.859375 Z M 373.132812 448.65625 C 374.53125 449.207031 375.03125 451.304688 374.128906 452.707031 C 373.429688 453.753906 373.03125 453.90625 370.480469 453.753906 L 367.683594 453.605469 L 367.484375 451.707031 C 367.234375 448.808594 367.53125 448.355469 370.082031 448.355469 C 371.28125 448.355469 372.679688 448.507812 373.132812 448.65625 Z M 373.132812 448.65625 "/>
<path style=" stroke:none;fill-rule:nonzero;fill:rgb(0%,0%,0%);fill-opacity:1;" d="M 387.875 454.105469 C 387.875 461.003906 387.925781 461.351562 388.875 461.351562 C 389.824219 461.351562 389.875 461.003906 389.875 454.105469 C 389.875 447.207031 389.824219 446.859375 388.875 446.859375 C 387.925781 446.859375 387.875 447.207031 387.875 454.105469 Z M 387.875 454.105469 "/>
<path style=" stroke:none;fill-rule:nonzero;fill:rgb(0%,0%,0%);fill-opacity:1;" d="M 401.371094 454.105469 L 401.371094 461.351562 L 406.371094 461.351562 C 410.46875 461.351562 411.367188 461.203125 411.367188 460.601562 C 411.367188 460.003906 410.570312 459.851562 407.371094 459.851562 L 403.371094 459.851562 L 403.371094 454.90625 L 407.019531 454.753906 C 408.96875 454.65625 410.617188 454.355469 410.617188 454.105469 C 410.617188 453.804688 408.96875 453.554688 407.019531 453.457031 L 403.371094 453.304688 L 403.371094 448.355469 L 407.371094 448.355469 C 410.570312 448.355469 411.367188 448.207031 411.367188 447.605469 C 411.367188 447.007812 410.46875 446.859375 406.371094 446.859375 L 401.371094 446.859375 Z M 401.371094 454.105469 "/>
<path style=" stroke:none;fill-rule:nonzero;fill:rgb(0%,0%,0%);fill-opacity:1;" d="M 147.453125 454.105469 C 147.453125 454.753906 150.601562 454.855469 173.246094 454.855469 C 193.636719 454.855469 198.988281 454.703125 198.835938 454.207031 C 198.636719 453.753906 192.9375 453.554688 173.042969 453.457031 C 150.503906 453.355469 147.453125 453.457031 147.453125 454.105469 Z M 147.453125 454.105469 "/>
<path style=" stroke:none;fill-rule:nonzero;fill:rgb(0%,0%,0%);fill-opacity:1;" d="M 428.714844 453.707031 C 428.511719 453.855469 428.363281 454.207031 428.363281 454.453125 C 428.363281 454.65625 439.859375 454.855469 453.855469 454.855469 C 476.199219 454.855469 479.347656 454.753906 479.347656 454.105469 C 479.347656 453.457031 476.199219 453.355469 454.207031 453.355469 C 440.359375 453.355469 428.863281 453.503906 428.714844 453.707031 Z M 428.714844 453.707031 "/>
</g>
</svg>
