<?xml version="1.0" encoding="UTF-8"?>
<svg xmlns="http://www.w3.org/2000/svg" xmlns:xlink="http://www.w3.org/1999/xlink" width="450px" height="450px" viewBox="0 0 450 450" version="1.1">
<g id="surface1">
<path style=" stroke:none;fill-rule:nonzero;fill:rgb(0%,0%,0%);fill-opacity:1;" d="M 151.566406 103.746094 C 151.457031 103.996094 151.425781 136.105469 151.457031 175.0625 L 151.566406 245.914062 L 298.289062 245.914062 L 298.289062 103.496094 L 225 103.390625 C 166.558594 103.316406 151.671875 103.390625 151.566406 103.746094 M 296.316406 174.703125 L 296.316406 243.941406 L 153.539062 243.941406 L 153.539062 105.46875 L 296.316406 105.46875 Z M 296.316406 174.703125 "/>
<path style=" stroke:none;fill-rule:nonzero;fill:rgb(0%,0%,0%);fill-opacity:1;" d="M 165.738281 134.851562 C 165.738281 135.027344 166.558594 135.351562 167.53125 135.605469 C 169.683594 136.105469 171.296875 137.574219 171.832031 139.476562 C 172.371094 141.414062 172.339844 189.125 171.800781 191.636719 C 171.261719 194.148438 169.429688 196.015625 167.246094 196.410156 C 166.3125 196.554688 165.773438 196.839844 165.84375 197.054688 C 166.023438 197.664062 180.515625 197.664062 180.695312 197.089844 C 180.769531 196.839844 180.195312 196.589844 179.222656 196.441406 C 176.75 196.050781 175.351562 194.9375 174.597656 192.714844 C 174.023438 190.957031 173.988281 188.875 174.058594 166.492188 L 174.167969 142.128906 L 178.113281 148.980469 C 180.265625 152.785156 185.324219 161.683594 189.34375 168.785156 C 193.324219 175.886719 196.730469 181.808594 196.875 181.953125 C 197.019531 182.09375 198.597656 179.511719 200.316406 176.214844 C 202.074219 172.910156 206.167969 165.308594 209.433594 159.28125 C 212.660156 153.253906 216.175781 146.796875 217.179688 144.929688 L 219.007812 141.523438 L 219.117188 166.8125 C 219.1875 183.957031 219.082031 192.535156 218.828125 193.433594 C 218.363281 195.042969 217.109375 196.085938 215.242188 196.410156 C 214.378906 196.554688 213.808594 196.839844 213.808594 197.160156 C 213.808594 197.554688 215.386719 197.628906 222.597656 197.628906 C 229.734375 197.628906 231.386719 197.554688 231.386719 197.160156 C 231.386719 196.875 230.8125 196.554688 230.058594 196.410156 C 226.398438 195.726562 226.363281 195.511719 226.363281 181.734375 C 226.363281 175.527344 226.472656 170.402344 226.652344 170.328125 C 226.792969 170.253906 229.59375 170.253906 232.855469 170.328125 L 238.808594 170.433594 L 236.910156 173.304688 C 233.394531 178.652344 231.851562 184.496094 232.210938 191.207031 C 232.75 201.324219 238.023438 209.898438 246.703125 214.738281 C 254.738281 219.261719 264.570312 220.265625 274.003906 217.535156 C 277.554688 216.535156 282.433594 214.273438 284.046875 212.910156 C 285.089844 212.050781 285.265625 211.511719 286.449219 205.125 C 286.703125 203.726562 285.914062 204.265625 284.511719 206.417969 C 282.363281 209.753906 279.3125 212.410156 275.402344 214.347656 C 271.0625 216.496094 267.832031 217.144531 262.953125 216.929688 C 256.101562 216.605469 250.648438 213.84375 246.273438 208.535156 C 242.039062 203.40625 240.03125 197.734375 239.742188 190.273438 C 239.457031 182.957031 240.925781 177.179688 244.441406 171.90625 C 245.878906 169.71875 246.347656 169.324219 247.777344 168.824219 C 250.46875 167.890625 254.058594 165.59375 255.960938 163.511719 L 257.753906 161.613281 L 262.273438 161.503906 C 265.574219 161.394531 267.402344 161.503906 269.089844 161.933594 C 275.902344 163.65625 281.714844 168.929688 283.546875 174.992188 C 283.941406 176.214844 284.371094 177.214844 284.585938 177.214844 C 285.019531 177.214844 284.550781 166.09375 284.085938 165.519531 C 283.546875 164.875 277.269531 161.898438 274.792969 161.109375 C 270.738281 159.855469 268.300781 159.496094 263.566406 159.496094 C 259.65625 159.457031 259.042969 159.386719 259.222656 158.921875 C 259.796875 157.378906 260.441406 153.828125 260.441406 152.03125 C 260.441406 144.035156 256.03125 138.4375 247.351562 135.566406 C 244.910156 134.742188 244.410156 134.742188 229.339844 134.597656 C 219.726562 134.527344 213.808594 134.597656 213.808594 134.8125 C 213.808594 135.027344 214.417969 135.277344 215.132812 135.425781 C 217.144531 135.785156 218.363281 136.535156 218.613281 137.574219 C 218.792969 138.292969 218.003906 139.980469 214.777344 145.933594 C 212.515625 150.023438 208.855469 156.730469 206.632812 160.894531 C 204.839844 164.21875 203.046875 167.542969 201.25 170.867188 C 199.746094 173.699219 199.925781 173.769531 197.414062 169.144531 C 196.441406 167.351562 193.933594 162.9375 191.855469 159.28125 C 189.808594 155.621094 185.789062 148.554688 182.992188 143.566406 L 177.863281 134.527344 L 171.800781 134.527344 C 168.429688 134.527344 165.738281 134.671875 165.738281 134.851562 M 241.105469 136.824219 C 242.433594 137.109375 244.300781 137.753906 245.234375 138.222656 C 247.277344 139.261719 250.363281 142.382812 251.441406 144.5 C 253.769531 149.054688 253.84375 155.332031 251.652344 159.886719 C 250.867188 161.433594 250.363281 161.933594 248.136719 163.261719 C 246.738281 164.085938 244.660156 165.488281 243.511719 166.347656 C 240.894531 168.355469 239.347656 168.644531 232.285156 168.535156 L 226.542969 168.429688 L 226.433594 152.855469 C 226.398438 141.664062 226.472656 137.144531 226.757812 136.824219 C 227.332031 136.140625 237.84375 136.140625 241.105469 136.824219 M 105.722656 273.609375 C 105.289062 275.007812 95.78125 297.144531 95.246094 297.96875 C 94.921875 298.46875 94.277344 299.007812 93.773438 299.1875 C 93.308594 299.367188 92.910156 299.617188 92.910156 299.726562 C 92.910156 299.832031 94.3125 299.90625 96.070312 299.867188 C 98.582031 299.867188 99.046875 299.796875 98.363281 299.472656 C 97.003906 298.792969 97.003906 297.609375 98.363281 294.234375 L 99.585938 291.117188 L 110.886719 291.117188 L 112.320312 294.308594 C 114.003906 298.074219 114.042969 298.722656 112.753906 299.292969 C 111.820312 299.6875 111.890625 299.726562 114.003906 299.832031 C 115.226562 299.90625 117.164062 299.90625 118.3125 299.832031 C 120.140625 299.726562 120.285156 299.6875 119.457031 299.292969 C 118.027344 298.648438 117.558594 297.894531 114.617188 291.1875 C 109.128906 278.558594 106.6875 273.214844 106.292969 273.105469 C 106.078125 273.035156 105.828125 273.25 105.722656 273.609375 M 107.726562 283.90625 C 109.058594 286.917969 110.128906 289.539062 110.128906 289.714844 C 110.128906 289.894531 107.835938 290.113281 105.074219 290.183594 C 100.875 290.253906 100.015625 290.21875 100.160156 289.785156 C 101.378906 286.703125 104.964844 278.378906 105.109375 278.378906 C 105.214844 278.378906 106.402344 280.855469 107.726562 283.90625 M 182.058594 273.320312 C 181.953125 273.5 179.621094 278.953125 176.859375 285.375 C 174.128906 291.832031 171.621094 297.503906 171.296875 297.96875 C 170.972656 298.46875 170.292969 299.042969 169.753906 299.292969 C 168.824219 299.6875 168.855469 299.726562 170.507812 299.832031 C 171.441406 299.90625 172.910156 299.867188 173.738281 299.796875 C 174.992188 299.6875 175.101562 299.617188 174.417969 299.367188 C 173.054688 298.902344 173.054688 297.609375 174.417969 294.199219 L 175.675781 291.117188 L 181.308594 291.007812 L 186.902344 290.898438 L 188.191406 293.699219 C 188.910156 295.238281 189.558594 296.996094 189.664062 297.644531 C 189.84375 298.613281 189.699219 298.828125 188.839844 299.328125 C 187.832031 299.832031 188.011719 299.867188 192.035156 299.90625 C 194.757812 299.90625 196.195312 299.761719 196.050781 299.546875 C 195.941406 299.328125 195.617188 299.1875 195.332031 299.1875 C 194.398438 299.1875 193.539062 297.464844 188.160156 285.265625 C 185.214844 278.523438 182.667969 273 182.527344 273 C 182.378906 273 182.203125 273.140625 182.058594 273.320312 M 183.851562 283.90625 C 185.179688 286.953125 186.222656 289.574219 186.148438 289.679688 C 185.96875 289.964844 176.859375 290.253906 176.460938 290.039062 C 176.175781 289.859375 180.839844 278.414062 181.199219 278.378906 C 181.339844 278.378906 182.527344 280.890625 183.851562 283.90625 M 220.515625 273.71875 C 216.535156 274.972656 213.019531 278.558594 211.796875 282.542969 C 211.082031 284.980469 211.152344 288.78125 211.976562 291.152344 C 213.988281 296.855469 219.113281 300.261719 225.644531 300.261719 C 228.441406 300.261719 231.777344 299.472656 233.214844 298.433594 C 234.648438 297.394531 236.191406 294.738281 235.761719 293.949219 C 235.472656 293.449219 235.332031 293.554688 234.613281 294.667969 C 232.75 297.714844 228.550781 299.761719 224.925781 299.441406 C 222.5625 299.222656 221.160156 298.574219 219.152344 296.785156 C 215.132812 293.160156 213.84375 285.519531 216.285156 279.957031 C 219.082031 273.71875 226.757812 271.707031 231.601562 275.976562 C 232.496094 276.765625 233.683594 278.308594 234.253906 279.417969 L 235.332031 281.429688 L 235.222656 278.558594 L 235.152344 275.691406 L 233.609375 274.863281 C 230.128906 272.925781 224.5 272.425781 220.515625 273.71875 M 264.425781 273.609375 C 264.136719 274.183594 262.703125 277.554688 255.707031 294.167969 C 254.273438 297.570312 253.199219 299.1875 252.335938 299.1875 C 252.085938 299.1875 251.761719 299.328125 251.652344 299.546875 C 251.511719 299.761719 252.585938 299.90625 254.597656 299.867188 C 257.140625 299.867188 257.609375 299.796875 256.925781 299.472656 C 255.636719 298.828125 255.636719 297.75 256.964844 294.308594 L 258.183594 291.117188 L 263.816406 291.007812 L 269.445312 290.898438 L 270.703125 293.699219 C 271.421875 295.238281 272.066406 297.035156 272.175781 297.644531 C 272.355469 298.683594 272.246094 298.863281 271.347656 299.261719 C 270.34375 299.6875 270.417969 299.726562 272.566406 299.832031 C 273.785156 299.90625 275.722656 299.90625 276.875 299.832031 C 278.738281 299.726562 278.847656 299.6875 278.019531 299.292969 C 277.519531 299.082031 276.910156 298.683594 276.730469 298.433594 C 276.515625 298.148438 274.183594 293.089844 271.5625 287.167969 C 266.6875 276.15625 265.214844 273 264.929688 273 C 264.855469 273 264.640625 273.285156 264.425781 273.609375 M 266.542969 284.121094 C 267.867188 287.167969 268.910156 289.785156 268.800781 289.933594 C 268.691406 290.183594 258.828125 289.964844 258.828125 289.714844 C 258.828125 289.140625 263.566406 278.414062 263.777344 278.488281 C 263.957031 278.523438 265.175781 281.070312 266.542969 284.121094 M 375.707031 273.679688 C 370.792969 275.511719 367.636719 279.816406 367.097656 285.375 C 366.84375 288.101562 367.417969 290.792969 368.886719 293.554688 C 370.179688 296.03125 372.15625 297.859375 374.84375 299.152344 C 376.636719 299.976562 377.285156 300.082031 380.621094 300.082031 C 383.992188 300.046875 384.601562 299.976562 386.433594 299.082031 C 389.050781 297.789062 391.777344 294.8125 392.851562 292.082031 C 393.496094 290.46875 393.675781 289.320312 393.675781 286.628906 C 393.675781 282.328125 392.816406 279.925781 390.269531 277.125 C 387.617188 274.253906 385.285156 273.214844 380.980469 273.105469 C 378.289062 273 377.175781 273.140625 375.707031 273.679688 M 383.417969 274.253906 C 387.976562 276.15625 390.988281 283.113281 389.980469 289.285156 C 388.976562 295.347656 385.859375 298.972656 381.191406 299.441406 C 373.375 300.226562 367.992188 288.175781 372.191406 279.277344 C 373.15625 277.234375 375.347656 275.042969 377.175781 274.21875 C 378.683594 273.574219 381.769531 273.609375 383.417969 274.253906 M 60.625 273.71875 C 60.625 273.894531 60.84375 274.074219 61.128906 274.074219 C 61.417969 274.074219 61.917969 274.433594 62.203125 274.863281 C 62.707031 275.546875 62.78125 277.269531 62.78125 286.449219 C 62.78125 292.371094 62.671875 297.570312 62.5625 298.039062 C 62.421875 298.46875 61.953125 298.933594 61.488281 299.042969 C 59.550781 299.546875 60.84375 299.90625 64.429688 299.90625 C 66.832031 299.90625 68.121094 299.761719 67.980469 299.546875 C 67.875 299.328125 67.515625 299.1875 67.261719 299.1875 C 66.296875 299.1875 66.007812 297.789062 66.007812 292.945312 L 66.007812 288.066406 L 69.523438 288.066406 C 75.082031 288.066406 78.097656 286.777344 79.640625 283.761719 C 81.792969 279.566406 79.386719 274.832031 74.617188 273.753906 C 72.503906 273.25 60.625 273.25 60.625 273.71875 M 72.285156 274.433594 C 73.289062 274.648438 74.1875 275.257812 75.300781 276.410156 L 76.84375 278.058594 L 76.699219 280.710938 C 76.554688 283.652344 75.980469 284.765625 73.902344 286.164062 C 72.894531 286.882812 72.25 286.988281 69.378906 286.988281 L 66.007812 286.988281 L 66.007812 280.785156 C 66.007812 277.339844 66.117188 274.433594 66.257812 274.324219 C 66.582031 273.964844 70.597656 274.039062 72.285156 274.433594 M 135.785156 273.71875 C 135.890625 273.894531 136.25 274.074219 136.5 274.074219 C 137.613281 274.074219 137.753906 275.511719 137.753906 286.953125 L 137.753906 298.46875 L 136.609375 299.1875 L 135.425781 299.90625 L 139.300781 299.90625 C 141.414062 299.90625 143.136719 299.832031 143.136719 299.726562 C 143.136719 299.617188 142.742188 299.367188 142.277344 299.222656 C 141.199219 298.792969 140.984375 297.679688 140.984375 292.335938 L 140.984375 288.066406 L 144.5 288.066406 C 148.839844 288.066406 151.316406 287.382812 153.183594 285.699219 C 154.761719 284.261719 155.476562 282.507812 155.40625 280.101562 C 155.332031 277.054688 153.46875 274.898438 150.09375 273.859375 C 148.050781 273.25 135.425781 273.105469 135.785156 273.71875 M 149.019531 275.1875 C 150.8125 276.410156 151.851562 278.453125 151.851562 280.675781 C 151.851562 282.648438 151.425781 283.761719 150.167969 285.125 C 148.839844 286.628906 147.691406 286.988281 144.214844 286.988281 L 140.984375 286.988281 L 140.984375 280.785156 C 140.984375 277.339844 141.089844 274.472656 141.199219 274.324219 C 141.304688 274.21875 142.847656 274.183594 144.605469 274.21875 C 147.261719 274.324219 147.980469 274.472656 149.019531 275.1875 M 294.878906 273.644531 C 294.878906 273.785156 295.238281 274.074219 295.671875 274.253906 C 296.136719 274.472656 296.605469 275.117188 296.746094 275.796875 C 296.925781 276.441406 297.035156 281.75 296.964844 287.5625 L 296.855469 298.183594 L 294.703125 299.90625 L 298.574219 299.90625 C 301.085938 299.90625 302.378906 299.761719 302.238281 299.546875 C 302.128906 299.328125 301.769531 299.1875 301.519531 299.1875 C 300.550781 299.1875 300.261719 297.789062 300.261719 292.945312 L 300.261719 288.066406 L 304.496094 288.066406 L 307.691406 293.339844 C 309.410156 296.210938 311.277344 298.902344 311.777344 299.261719 C 312.496094 299.796875 313.175781 299.90625 315.1875 299.832031 L 317.664062 299.726562 L 316.40625 299.152344 C 315.726562 298.828125 314.933594 298.328125 314.683594 298.003906 C 314.074219 297.285156 308.117188 287.601562 308.226562 287.527344 C 308.296875 287.527344 309.015625 287.203125 309.839844 286.847656 C 312.457031 285.699219 313.894531 283.402344 313.894531 280.351562 C 313.894531 277.089844 311.671875 274.542969 308.15625 273.753906 C 306.292969 273.320312 294.878906 273.214844 294.878906 273.644531 M 307.652344 275.1875 C 311.492188 277.554688 311.457031 283.976562 307.582031 286.164062 C 306.433594 286.808594 305.605469 286.988281 303.242188 286.988281 L 300.261719 286.988281 L 300.261719 274.433594 L 303.347656 274.433594 C 305.859375 274.433594 306.683594 274.578125 307.652344 275.1875 M 333.375 273.574219 C 333.519531 273.71875 333.984375 274.003906 334.417969 274.21875 L 335.242188 274.648438 L 335.347656 286.558594 L 335.417969 298.46875 L 334.269531 299.1875 L 333.085938 299.90625 L 342.953125 299.832031 L 352.816406 299.726562 L 353.214844 297.929688 C 354.039062 294.488281 353.929688 294.378906 351.816406 296.496094 C 349.519531 298.792969 347.761719 299.257812 342.558594 299.113281 L 339.183594 299.007812 L 339.183594 274.652344 L 340.011719 274.21875 C 341.554688 273.464844 341.269531 273.359375 337.214844 273.359375 C 334.988281 273.359375 333.265625 273.464844 333.375 273.574219 M 233.683594 320.855469 C 232.496094 321.394531 232.105469 322.039062 232.105469 323.4375 C 232.105469 325.015625 232.75 325.695312 234.828125 326.308594 C 237.339844 327.027344 238.382812 327.957031 237.84375 328.996094 C 236.980469 330.574219 234.433594 330.648438 233.25 329.175781 C 232.605469 328.351562 231.746094 328.316406 231.746094 329.105469 C 231.746094 329.355469 232.136719 329.929688 232.640625 330.394531 C 234.542969 332.191406 239.167969 331.402344 239.347656 329.25 C 239.496094 326.808594 238.882812 326.09375 235.871094 325.195312 C 233.609375 324.550781 232.929688 323.722656 233.753906 322.578125 C 234.46875 321.535156 236.480469 321.5 237.519531 322.539062 C 237.914062 322.9375 238.488281 323.183594 238.777344 323.078125 C 240.101562 322.578125 237.304688 320.316406 235.441406 320.355469 C 235.082031 320.386719 234.292969 320.601562 233.683594 320.855469 M 154.972656 325.875 C 154.972656 330.863281 155.007812 331.113281 155.691406 331.113281 C 156.371094 331.113281 156.410156 330.863281 156.445312 327.058594 L 156.445312 323.042969 L 157.949219 327.097656 C 159.925781 332.40625 160.285156 332.40625 162.292969 326.988281 L 163.761719 323.042969 L 163.871094 327.058594 C 163.941406 330.828125 164.015625 331.113281 164.660156 331.113281 C 165.339844 331.113281 165.378906 330.863281 165.378906 325.914062 L 165.378906 320.710938 L 164.375 320.710938 C 163.402344 320.710938 163.296875 320.890625 161.792969 325.050781 C 160.929688 327.453125 160.140625 329.285156 160.105469 329.105469 C 160.035156 328.925781 159.28125 326.988281 158.417969 324.835938 C 157.019531 321.320312 156.769531 320.890625 155.90625 320.78125 L 154.972656 320.675781 Z M 173.628906 325.914062 L 173.628906 331.113281 L 177.253906 331.113281 C 179.976562 331.113281 180.839844 331.007812 180.730469 330.648438 C 180.621094 330.363281 179.621094 330.183594 177.824219 330.109375 L 175.0625 330.003906 L 175.0625 326.453125 L 177.574219 326.453125 C 179.582031 326.453125 180.085938 326.34375 180.085938 325.914062 C 180.085938 325.480469 179.582031 325.375 177.574219 325.375 L 175.0625 325.375 L 175.0625 321.824219 L 177.863281 321.714844 C 181.773438 321.574219 181.199219 320.925781 177.039062 320.78125 L 173.628906 320.675781 Z M 188.695312 325.914062 C 188.695312 330.863281 188.730469 331.113281 189.410156 331.113281 C 190.097656 331.113281 190.128906 330.863281 190.128906 327.167969 C 190.128906 324.980469 190.238281 323.222656 190.417969 323.257812 C 190.5625 323.257812 191.816406 325.015625 193.179688 327.167969 C 195.152344 330.253906 195.871094 331.113281 196.515625 331.113281 C 197.308594 331.113281 197.308594 331.078125 197.308594 325.875 C 197.308594 321.105469 197.269531 320.675781 196.695312 320.78125 C 196.121094 320.890625 196.050781 321.355469 196.050781 324.761719 C 196.085938 326.878906 195.976562 328.605469 195.835938 328.605469 C 195.726562 328.605469 194.4375 326.808594 193 324.65625 C 190.921875 321.5 190.238281 320.710938 189.558594 320.710938 L 188.695312 320.710938 Z M 205.589844 325.015625 C 205.738281 329.105469 205.769531 329.355469 206.667969 330.253906 C 208.5 332.046875 212.375 331.6875 213.484375 329.609375 C 213.734375 329.144531 213.914062 327.238281 213.878906 324.871094 C 213.878906 321.535156 213.773438 320.855469 213.304688 320.78125 C 212.800781 320.675781 212.730469 321.179688 212.730469 324.261719 C 212.730469 326.234375 212.550781 328.246094 212.335938 328.746094 C 211.546875 330.433594 208.570312 330.722656 207.527344 329.210938 C 207.136719 328.636719 206.988281 327.386719 206.988281 324.585938 C 206.988281 320.890625 206.957031 320.710938 206.238281 320.710938 C 205.519531 320.710938 205.484375 320.855469 205.589844 325.015625 M 222.417969 325.914062 C 222.417969 330.863281 222.453125 331.113281 223.136719 331.113281 C 223.816406 331.113281 223.851562 330.863281 223.851562 325.914062 C 223.851562 320.960938 223.816406 320.710938 223.136719 320.710938 C 222.453125 320.710938 222.417969 320.960938 222.417969 325.914062 M 247.171875 325.914062 L 247.171875 331.113281 L 250.757812 331.113281 C 253.699219 331.113281 254.34375 331.007812 254.34375 330.574219 C 254.34375 330.144531 253.769531 330.035156 251.472656 330.035156 L 248.605469 330.035156 L 248.605469 326.453125 L 251.113281 326.453125 C 253.125 326.453125 253.625 326.34375 253.625 325.914062 C 253.625 325.480469 253.125 325.375 251.113281 325.375 L 248.605469 325.375 L 248.605469 321.785156 L 251.472656 321.785156 C 253.769531 321.785156 254.34375 321.679688 254.34375 321.246094 C 254.34375 320.820312 253.699219 320.710938 250.757812 320.710938 L 247.171875 320.710938 Z M 262.59375 325.914062 C 262.59375 330.613281 262.667969 331.113281 263.242188 331.113281 C 263.746094 331.113281 263.851562 330.753906 263.851562 329.035156 L 263.886719 326.988281 L 265.285156 326.988281 C 266.648438 326.988281 266.792969 327.097656 267.941406 329.035156 C 268.871094 330.613281 269.339844 331.113281 269.984375 331.113281 C 270.808594 331.113281 270.808594 331.078125 269.519531 328.964844 L 268.265625 326.808594 L 269.199219 326.054688 C 269.949219 325.480469 270.128906 325.015625 270.128906 323.761719 C 270.128906 321.394531 269.050781 320.710938 265.429688 320.710938 L 262.59375 320.710938 Z M 267.796875 322 C 268.800781 322.398438 269.160156 323.902344 268.511719 324.910156 C 268.011719 325.660156 267.726562 325.769531 265.894531 325.660156 L 263.886719 325.554688 L 263.746094 324.191406 C 263.566406 322.113281 263.777344 321.785156 265.609375 321.785156 C 266.46875 321.785156 267.472656 321.894531 267.796875 322 M 278.378906 325.914062 C 278.378906 330.863281 278.414062 331.113281 279.097656 331.113281 C 279.777344 331.113281 279.816406 330.863281 279.816406 325.914062 C 279.816406 320.960938 279.777344 320.710938 279.097656 320.710938 C 278.414062 320.710938 278.378906 320.960938 278.378906 325.914062 M 288.066406 325.914062 L 288.066406 331.113281 L 291.652344 331.113281 C 294.59375 331.113281 295.238281 331.007812 295.238281 330.574219 C 295.238281 330.144531 294.667969 330.035156 292.371094 330.035156 L 289.5 330.035156 L 289.5 326.488281 L 292.121094 326.378906 C 293.519531 326.308594 294.703125 326.09375 294.703125 325.914062 C 294.703125 325.695312 293.519531 325.519531 292.121094 325.449219 L 289.5 325.339844 L 289.5 321.785156 L 292.371094 321.785156 C 294.667969 321.785156 295.238281 321.679688 295.238281 321.246094 C 295.238281 320.820312 294.59375 320.710938 291.652344 320.710938 L 288.066406 320.710938 Z M 105.828125 325.914062 C 105.828125 326.378906 108.085938 326.449219 124.339844 326.449219 C 138.972656 326.449219 142.816406 326.34375 142.707031 325.984375 C 142.5625 325.660156 138.472656 325.519531 124.195312 325.449219 C 108.015625 325.375 105.828125 325.449219 105.828125 325.914062 M 307.691406 325.628906 C 307.542969 325.734375 307.4375 325.984375 307.4375 326.164062 C 307.4375 326.308594 315.6875 326.453125 325.734375 326.453125 C 341.769531 326.453125 344.03125 326.378906 344.03125 325.914062 C 344.03125 325.449219 341.769531 325.375 325.984375 325.375 C 316.046875 325.375 307.796875 325.480469 307.691406 325.628906 M 307.691406 325.628906 "/>
</g>
</svg>
