<?xml version="1.0" standalone="no"?>
<!DOCTYPE svg PUBLIC "-//W3C//DTD SVG 20010904//EN"
 "http://www.w3.org/TR/2001/REC-SVG-20010904/DTD/svg10.dtd">
<svg version="1.0" xmlns="http://www.w3.org/2000/svg"
 width="1254.000000pt" height="1254.000000pt" viewBox="0 0 1254.000000 1254.000000"
 preserveAspectRatio="xMidYMid meet">

<g transform="translate(0.000000,1254.000000) scale(0.100000,-0.100000)"
fill="#000000" stroke="none">
<path d="M4225 9648 c-3 -7 -4 -902 -3 -1988 l3 -1975 2045 0 2045 0 0 1985 0
1985 -2043 3 c-1629 2 -2044 0 -2047 -10z m4035 -1978 l0 -1930 -1990 0 -1990
0 0 1930 0 1930 1990 0 1990 0 0 -1930z"/>
<path d="M4620 8781 c0 -5 23 -14 50 -21 60 -14 105 -55 120 -108 15 -54 14
-1384 -1 -1454 -15 -70 -66 -122 -127 -133 -26 -4 -41 -12 -39 -18 5 -17 409
-17 414 -1 2 7 -14 14 -41 18 -69 11 -108 42 -129 104 -16 49 -17 107 -15 731
l3 679 110 -191 c60 -106 201 -354 313 -552 111 -198 206 -363 210 -367 4 -4
48 68 96 160 49 92 163 304 254 472 90 168 188 348 216 400 l51 95 3 -705 c2
-478 -1 -717 -8 -742 -13 -45 -48 -74 -100 -83 -24 -4 -40 -12 -40 -21 0 -11
44 -13 245 -13 199 0 245 2 245 13 0 8 -16 17 -37 21 -102 19 -103 25 -103
409 0 173 3 316 8 318 4 2 82 2 173 0 l166 -3 -53 -80 c-98 -149 -141 -312
-131 -499 15 -282 162 -521 404 -656 224 -126 498 -154 761 -78 99 28 235 91
280 129 29 24 34 39 67 217 7 39 -15 24 -54 -36 -60 -93 -145 -167 -254 -221
-121 -60 -211 -78 -347 -72 -191 9 -343 86 -465 234 -118 143 -174 301 -182
509 -8 204 33 365 131 512 40 61 53 72 93 86 75 26 175 90 228 148 l50 53 126
3 c92 3 143 0 190 -12 190 -48 352 -195 403 -364 11 -34 23 -62 29 -62 12 0
-1 310 -14 326 -15 18 -190 101 -259 123 -113 35 -181 45 -313 45 -109 1 -126
3 -121 16 16 43 34 142 34 192 0 223 -123 379 -365 459 -68 23 -82 23 -502 27
-268 2 -433 0 -433 -6 0 -6 17 -13 37 -17 56 -10 90 -31 97 -60 5 -20 -17 -67
-107 -233 -63 -114 -165 -301 -227 -417 -62 -115 -130 -241 -150 -278 -42 -79
-37 -81 -107 48 -27 50 -97 173 -155 275 -57 102 -169 299 -247 438 l-143 252
-169 0 c-94 0 -169 -4 -169 -9z m2101 -55 c37 -8 89 -26 115 -39 57 -29 143
-116 173 -175 65 -127 67 -302 6 -429 -22 -43 -36 -57 -98 -94 -39 -23 -97
-62 -129 -86 -73 -56 -116 -64 -313 -61 l-160 3 -3 434 c-1 312 1 438 9 447
16 19 309 19 400 0z"/>
<path d="M2947 4913 c-12 -39 -277 -656 -292 -679 -9 -14 -27 -29 -41 -34 -13
-5 -24 -12 -24 -15 0 -3 39 -5 88 -4 70 0 83 2 64 11 -38 19 -38 52 0 146 l34
87 157 0 158 0 40 -89 c47 -105 48 -123 12 -139 -26 -11 -24 -12 35 -15 34 -2
88 -2 120 0 51 3 55 4 32 15 -40 18 -53 39 -135 226 -153 352 -221 501 -232
504 -6 2 -13 -4 -16 -14z m56 -287 c37 -84 67 -157 67 -162 0 -5 -64 -11 -141
-13 -117 -2 -141 -1 -137 11 34 86 134 318 138 318 3 0 36 -69 73 -154z"/>
<path d="M5075 4921 c-3 -5 -68 -157 -145 -336 -76 -180 -146 -338 -155 -351
-9 -14 -28 -30 -43 -37 -26 -11 -25 -12 21 -15 26 -2 67 -1 90 1 35 3 38 5 19
12 -38 13 -38 49 0 144 l35 86 157 3 156 3 36 -78 c20 -43 38 -92 41 -110 5
-27 1 -33 -23 -47 -28 -14 -23 -15 89 -16 76 0 116 4 112 10 -3 6 -12 10 -20
10 -26 0 -50 48 -200 388 -82 188 -153 342 -157 342 -4 0 -9 -4 -13 -9z m50
-295 c37 -85 66 -158 64 -161 -5 -8 -259 -16 -270 -10 -8 5 122 324 132 325 4
0 37 -70 74 -154z"/>
<path d="M6147 4910 c-111 -35 -209 -135 -243 -246 -20 -68 -18 -174 5 -240
56 -159 199 -254 381 -254 78 0 171 22 211 51 40 29 83 103 71 125 -8 14 -12
11 -32 -20 -52 -85 -169 -142 -270 -133 -66 6 -105 24 -161 74 -112 101 -148
314 -80 469 78 174 292 230 427 111 25 -22 58 -65 74 -96 l30 -56 -3 80 -2 80
-43 23 c-97 54 -254 68 -365 32z"/>
<path d="M7371 4913 c-8 -16 -48 -110 -243 -573 -40 -95 -70 -140 -94 -140 -7
0 -16 -4 -19 -10 -4 -6 26 -10 82 -9 71 0 84 2 65 11 -36 18 -36 48 1 144 l34
89 157 3 157 3 35 -78 c20 -43 38 -93 41 -110 5 -29 2 -34 -23 -45 -28 -12
-26 -13 34 -16 34 -2 88 -2 120 0 52 3 55 4 32 15 -14 6 -31 17 -36 24 -6 8
-71 149 -144 314 -136 307 -177 395 -185 395 -2 0 -8 -8 -14 -17z m59 -293
c37 -85 66 -158 63 -162 -3 -7 -278 -1 -278 6 0 16 132 315 138 313 5 -1 39
-72 77 -157z"/>
<path d="M10473 4911 c-137 -51 -225 -171 -240 -326 -7 -76 9 -151 50 -228 36
-69 91 -120 166 -156 50 -23 68 -26 161 -26 94 1 111 3 162 28 73 36 149 119
179 195 18 45 23 77 23 152 0 120 -24 187 -95 265 -74 80 -139 109 -259 112
-75 3 -106 -1 -147 -16z m215 -16 c127 -53 211 -247 183 -419 -28 -169 -115
-270 -245 -283 -218 -22 -368 314 -251 562 27 57 88 118 139 141 42 18 128 17
174 -1z"/>
<path d="M1690 4910 c0 -5 6 -10 14 -10 8 0 22 -10 30 -22 14 -19 16 -67 16
-323 0 -165 -3 -310 -6 -323 -4 -12 -17 -25 -30 -28 -54 -14 -18 -24 82 -24
67 0 103 4 99 10 -3 6 -13 10 -20 10 -27 0 -35 39 -35 174 l0 136 98 0 c155 0
239 36 282 120 60 117 -7 249 -140 279 -59 14 -390 14 -390 1z m325 -20 c28
-6 53 -23 84 -55 l43 -46 -4 -74 c-4 -82 -20 -113 -78 -152 -28 -20 -46 -23
-126 -23 l-94 0 0 173 c0 96 3 177 7 180 9 10 121 8 168 -3z"/>
<path d="M3785 4910 c3 -5 13 -10 20 -10 31 0 35 -40 35 -359 l0 -321 -32 -20
-33 -20 108 0 c59 0 107 2 107 5 0 3 -11 10 -24 14 -30 12 -36 43 -36 192 l0
119 98 0 c121 0 190 19 242 66 44 40 64 89 62 156 -2 85 -54 145 -148 174 -57
17 -409 21 -399 4z m369 -41 c50 -34 79 -91 79 -153 0 -55 -12 -86 -47 -124
-37 -42 -69 -52 -166 -52 l-90 0 0 173 c0 96 3 176 6 180 3 3 46 4 95 3 74 -3
94 -7 123 -27z"/>
<path d="M8220 4912 c0 -4 10 -12 22 -17 13 -6 26 -24 30 -43 5 -18 8 -166 6
-328 l-3 -296 -30 -24 -30 -24 108 0 c70 0 106 4 102 10 -3 6 -13 10 -20 10
-27 0 -35 39 -35 174 l0 136 59 0 59 0 89 -147 c48 -80 100 -155 114 -165 20
-15 39 -18 95 -16 l69 3 -35 16 c-19 9 -41 23 -48 32 -17 20 -183 290 -180
292 2 0 22 9 45 19 73 32 113 96 113 181 0 91 -62 162 -160 184 -52 12 -370
15 -370 3z m356 -43 c107 -66 106 -245 -2 -306 -32 -18 -55 -23 -121 -23 l-83
0 0 175 0 175 86 0 c70 0 93 -4 120 -21z"/>
<path d="M9293 4914 c4 -4 17 -12 29 -18 l23 -12 3 -332 2 -332 -32 -20 -33
-20 275 2 275 3 11 50 c23 96 20 99 -39 40 -64 -64 -113 -77 -258 -73 l-94 3
0 340 0 339 23 12 c43 21 35 24 -78 24 -62 0 -110 -3 -107 -6z"/>
<path d="M6514 3596 c-33 -15 -44 -33 -44 -72 0 -44 18 -63 76 -80 70 -20 99
-46 84 -75 -24 -44 -95 -46 -128 -5 -18 23 -42 24 -42 2 0 -7 11 -23 25 -36
53 -50 182 -28 187 32 4 68 -13 88 -97 113 -63 18 -82 41 -59 73 20 29 76 30
105 1 11 -11 27 -18 35 -15 37 14 -41 77 -93 76 -10 -1 -32 -7 -49 -14z"/>
<path d="M4320 3456 c0 -139 1 -146 20 -146 19 0 20 7 21 113 l0 112 42 -113
c55 -148 65 -148 121 3 l41 110 3 -112 c2 -105 4 -113 22 -113 19 0 20 7 20
145 l0 145 -28 0 c-27 0 -30 -5 -72 -121 -24 -67 -46 -118 -47 -113 -2 5 -23
59 -47 119 -39 98 -46 110 -70 113 l-26 3 0 -145z"/>
<path d="M4840 3455 l0 -145 101 0 c76 0 100 3 97 13 -3 8 -31 13 -81 15 l-77
3 0 49 0 50 70 0 c56 0 70 3 70 15 0 12 -14 15 -70 15 l-70 0 0 50 0 49 78 3
c109 4 93 22 -23 26 l-95 3 0 -146z"/>
<path d="M5260 3455 c0 -138 1 -145 20 -145 19 0 20 7 20 110 0 61 3 110 8
109 4 0 39 -49 77 -109 55 -86 75 -110 93 -110 22 0 22 1 22 146 0 133 -1 145
-17 142 -16 -3 -18 -16 -18 -111 1 -59 -2 -107 -6 -107 -3 0 -39 50 -79 110
-58 88 -77 110 -96 110 l-24 0 0 -145z"/>
<path d="M5731 3480 c4 -114 5 -121 30 -146 51 -50 159 -40 190 18 7 13 12 66
11 132 0 93 -3 112 -16 114 -14 3 -16 -11 -16 -97 0 -55 -5 -111 -11 -125 -22
-47 -105 -55 -134 -13 -11 16 -15 51 -15 129 0 103 -1 108 -21 108 -20 0 -21
-4 -18 -120z"/>
<path d="M6200 3455 c0 -138 1 -145 20 -145 19 0 20 7 20 145 0 138 -1 145
-20 145 -19 0 -20 -7 -20 -145z"/>
<path d="M6890 3455 l0 -145 100 0 c82 0 100 3 100 15 0 12 -16 15 -80 15
l-80 0 0 50 0 50 70 0 c56 0 70 3 70 15 0 12 -14 15 -70 15 l-70 0 0 50 0 50
80 0 c64 0 80 3 80 15 0 12 -18 15 -100 15 l-100 0 0 -145z"/>
<path d="M7320 3455 c0 -131 2 -145 18 -145 14 0 17 10 17 58 l1 57 39 0 c38
0 42 -3 74 -57 26 -44 39 -58 57 -58 23 0 23 1 -13 60 l-35 60 26 21 c21 16
26 29 26 64 0 66 -30 85 -131 85 l-79 0 0 -145z m145 109 c28 -11 38 -53 20
-81 -14 -21 -22 -24 -73 -21 l-56 3 -4 38 c-5 58 1 67 52 67 24 0 52 -3 61 -6z"/>
<path d="M7760 3455 c0 -138 1 -145 20 -145 19 0 20 7 20 145 0 138 -1 145
-20 145 -19 0 -20 -7 -20 -145z"/>
<path d="M8030 3455 l0 -145 100 0 c82 0 100 3 100 15 0 12 -16 15 -80 15
l-80 0 0 50 0 49 73 3 c39 2 72 8 72 13 0 6 -33 11 -72 13 l-73 3 0 49 0 50
80 0 c64 0 80 3 80 15 0 12 -18 15 -100 15 l-100 0 0 -145z"/>
<path d="M2950 3455 c0 -13 63 -15 516 -15 408 0 515 3 512 13 -4 9 -118 13
-516 15 -451 2 -512 0 -512 -13z"/>
<path d="M8577 3463 c-4 -3 -7 -10 -7 -15 0 -4 230 -8 510 -8 447 0 510 2 510
15 0 13 -63 15 -503 15 -277 0 -507 -3 -510 -7z"/>
</g>
</svg>
